<?xml version="1.0" encoding="UTF-8" standalone="no"?>
<!-- Created with Inkscape (http://www.inkscape.org/) -->

<svg
   xmlns:dc="http://purl.org/dc/elements/1.1/"
   xmlns:cc="http://creativecommons.org/ns#"
   xmlns:rdf="http://www.w3.org/1999/02/22-rdf-syntax-ns#"
   xmlns:svg="http://www.w3.org/2000/svg"
   xmlns="http://www.w3.org/2000/svg"
   xmlns:sodipodi="http://sodipodi.sourceforge.net/DTD/sodipodi-0.dtd"
   xmlns:inkscape="http://www.inkscape.org/namespaces/inkscape"
   width="80"
   height="80"
   id="svg4002"
   version="1.1"
   inkscape:version="0.91 r13725"
   sodipodi:docname="logo-division.svg">
  <defs
     id="defs4004" />
  <sodipodi:namedview
     id="base"
     pagecolor="#ffffff"
     bordercolor="#666666"
     borderopacity="1.0"
     inkscape:pageopacity="0.0"
     inkscape:pageshadow="2"
     inkscape:zoom="7.9195959"
     inkscape:cx="23.786093"
     inkscape:cy="45.506171"
     inkscape:document-units="px"
     inkscape:current-layer="svg4002"
     showgrid="false"
     fit-margin-top="0"
     fit-margin-left="0"
     fit-margin-right="0"
     fit-margin-bottom="0"
     inkscape:window-width="1920"
     inkscape:window-height="1017"
     inkscape:window-x="1272"
     inkscape:window-y="424"
     inkscape:window-maximized="1" />
  <metadata
     id="metadata4007">
    <rdf:RDF>
      <cc:Work
         rdf:about="">
        <dc:format>image/svg+xml</dc:format>
        <dc:type
           rdf:resource="http://purl.org/dc/dcmitype/StillImage" />
        <dc:title />
      </cc:Work>
    </rdf:RDF>
  </metadata>
  <path
     style="fill:#9e9e9e;fill-opacity:1;stroke:none"
     d="m 39.999997,0 c 0,2.61253 -2.96516,8.79797 -2.96516,13.12989 0,4.33192 1.6491,9.89653 2.08997,11.54195 0.12817,0.4783 0.19196,1.01148 0.20746,1.54945 l 1.33546,0 c 0.0155,-0.53797 0.0793,-1.07115 0.20747,-1.54945 0.44087,-1.64542 2.08996,-7.21003 2.08996,-11.54195 0,-4.33192 -2.96516,-10.51736 -2.96516,-13.12989 z m -10.19833,9.56061 c -1.31601,1.31602 -1.97482,2.52172 -1.97482,5.48277 0,6.03179 2.36774,9.3634 3.76599,10.76168 0.13913,0.13913 0.29389,0.27738 0.45635,0.41623 l 5.97567,0 c -0.19116,-0.64131 -0.43782,-1.28592 -0.76625,-1.85477 -1.03671,-1.79557 -3.06817,-4.72954 -5.21105,-8.44109 -2.14286,-3.71155 -1.85005,-4.88751 -2.24589,-6.36482 z m 20.39666,0 c -0.39586,1.47731 -0.10302,2.65327 -2.24589,6.36482 -2.1429,3.71155 -4.17436,6.64552 -5.21105,8.44109 -0.32843,0.56885 -0.57509,1.21346 -0.76624,1.85477 l 5.97566,0 c 0.16247,-0.13885 0.31723,-0.2771 0.45636,-0.41623 1.39824,-1.39827 3.76598,-4.72989 3.76598,-10.76168 3e-5,-2.96105 -0.65883,-4.16675 -1.97482,-5.48277 z m -29.1098,8.87363 c -0.2095,-0.0221 -0.37817,0.26303 -0.46092,0.57183 -1.19581,4.46268 2.32854,10.6267 4.11209,12.41029 0.21373,0.21374 0.43486,0.4312 0.65892,0.65045 l 3.48545,0 c -0.31564,-0.59856 -0.55651,-1.15279 -0.74602,-1.67015 l -3.33638,0 0,-4.17537 2.12748,0 c -0.11396,-0.28613 -0.24615,-0.57091 -0.41166,-0.85758 -1.18135,-2.04615 -4.23007,-3.82033 -4.72273,-5.65892 -0.24632,-0.9193 -0.49672,-1.24845 -0.70623,-1.27055 z m 37.82294,0 c -0.2095,0.0221 -0.45991,0.35125 -0.70622,1.27055 -0.49266,1.83859 -3.54139,3.61277 -4.72273,5.65892 -0.16551,0.28667 -0.29771,0.57145 -0.41167,0.85758 l 2.62853,0 0,4.17537 -3.83743,0 c -0.18951,0.51736 -0.43038,1.07159 -0.74602,1.67015 l 3.48545,0 c 0.22407,-0.21925 0.44519,-0.43671 0.65893,-0.65045 1.78355,-1.78359 5.30789,-7.94761 4.11208,-12.41029 -0.0827,-0.3088 -0.25141,-0.59393 -0.46092,-0.57183 z m -42.28047,7.81837 c -1.13269,0 -4.6322,0.21622 -4.30193,4.30226 0.38773,4.79728 8.19308,4.99918 7.65397,5.1569 -3.15729,0.92372 -5.94592,1.36384 -7.88459,1.36384 -1.93871,0 -1.39792,-0.5428 -3.87461,-0.5428 C 2.950603,36.53281 0,40.2577 0,40.2577 c 0,0 0.471002,1.00437 4.736104,1.00437 4.118663,0 8.630543,-2.13127 10.361433,-2.65984 -0.0647,0.0572 -0.12136,0.12042 -0.15593,0.18333 -0.0226,0.05 -0.0402,0.0941 -0.0613,0.14222 -1.00647,0.94377 -3.08716,3.09009 -3.08716,7.21979 0,4.80795 4.38924,9.62161 8.30538,9.62161 0.56982,-0.006 1.10901,0.0337 1.58077,-0.0405 0.009,-10e-4 0.0187,0.002 0.0274,0 0.0242,-0.003 0.0499,-0.0104 0.0744,-0.0137 0.8802,-0.11958 1.929,-0.46623 2.97201,-1.32307 1.05809,-1.11103 2.79457,-4.46853 2.68039,-9.14699 -0.0561,-2.29669 -0.58957,-3.21769 -1.63524,-4.21353 -0.27905,1.15335 -0.0301,2.06106 -1.62187,4.98043 -1.59185,2.91937 -2.80126,3.15012 -3.27049,4.6888 -0.67754,2.2219 -0.13788,2.68132 -0.83475,4.28823 -1.34408,-0.0298 -4.62785,-2.21966 -5.38067,-3.60973 -0.88976,-1.43938 -1.66232,-1.58683 -1.66232,-5.7744 0,-1.30422 0.43694,-2.6819 1.23467,-3.96268 0.003,0.21273 -0.005,0.42717 -0.0473,0.68534 0.18724,-0.39084 -0.62581,5.57393 2.97886,6.4666 3.07027,0.76033 3.66534,-1.87888 3.80644,-2.74139 0.14102,-0.86251 -0.0725,-2.71275 -2.19827,-3.06041 -2.12579,-0.34766 -2.1657,1.00514 -2.21881,1.32992 -0.0531,0.32478 -0.39478,1.26678 1.16029,0.67882 1.55499,-0.58795 1.43021,0.17411 1.34329,0.70557 -0.0869,0.53142 -0.55864,1.17821 -1.62154,1.00438 -1.0629,-0.17386 -1.16853,-0.887 -1.68972,-1.84565 -0.25017,-0.4602 -0.71563,-3.18258 -0.0812,-5.0212 1.95106,-1.96312 4.85876,-3.38596 8.34584,-3.38596 2.23153,0.0582 4.57725,0.96469 6.60653,2.20968 l 0,-1.59055 1.63394,0 c -0.41874,-0.55106 -0.83678,-1.1086 -1.24217,-1.67015 l -0.39177,0 -4.40566,-2.51761 c 1.391,1.35681 2.76479,2.72727 3.38368,3.79925 -1.61632,0.4331 -3.48228,-1.16029 -4.96021,-1.16029 -4.11002,0 -6.67134,-1.04659 -8.12891,-2.17804 -1.11713,-0.86717 -1.48614,-1.31161 -1.48617,-2.70746 0,-1.39586 0.93083,-1.86587 1.62872,-1.86587 0.69795,0 1.69481,-10e-5 0.6175,1.86587 -1.07733,1.86596 0.19755,1.62154 0.62402,1.62154 0.42652,0 2.16466,0.23365 2.16466,-2.55807 0,-2.79171 -2.32115,-3.45381 -3.45381,-3.45381 z m 46.738,0 c -1.13268,0 -3.45381,0.6621 -3.45381,3.45381 0,2.79171 1.73816,2.55806 2.16466,2.55806 0.42649,0 1.70137,0.24442 0.62403,-1.62154 -1.0773,-1.86596 -0.0805,-1.86587 0.61749,-1.86587 0.69789,0 1.62872,0.47001 1.62872,1.86587 -5e-5,1.39586 -0.36902,1.8403 -1.48617,2.70746 -1.45758,1.13145 -4.01891,2.17804 -8.12891,2.17804 -1.47801,0 -3.34387,1.5934 -4.9602,1.1603 0.51478,-0.89164 1.55321,-1.99019 2.68789,-3.11522 l -3.20884,1.83358 -0.89281,0 c -0.40538,0.56155 -0.82342,1.11908 -1.24217,1.67014 l 2.13498,0 0,1.29404 c 1.90905,-1.09003 4.05537,-1.85971 6.1055,-1.91316 3.48706,0 6.39479,1.42283 8.34583,3.38596 0.63439,1.83861 0.16899,4.56099 -0.0812,5.0212 -0.52117,0.95865 -0.62682,1.67179 -1.68972,1.84564 -1.06289,0.17383 -1.53461,-0.47295 -1.62154,-1.00437 -0.0869,-0.53147 -0.2114,-1.29353 1.34362,-0.70557 1.55501,0.58795 1.21308,-0.35405 1.15997,-0.67882 -0.0531,-0.32478 -0.093,-1.67759 -2.21882,-1.32992 -2.12579,0.34766 -2.33931,2.1979 -2.19826,3.06041 0.14104,0.86251 0.73617,3.50172 3.80643,2.74139 3.60468,-0.89267 2.79161,-6.85744 2.97886,-6.4666 -0.0423,-0.25817 -0.0503,-0.47261 -0.0473,-0.68535 0.79773,1.28078 1.23467,2.65847 1.23467,3.96268 0,4.18757 -0.77253,4.33503 -1.66231,5.7744 -0.75279,1.39007 -4.0366,3.57991 -5.38068,3.60974 -0.69687,-1.60692 -0.15717,-2.06633 -0.83475,-4.28823 -0.46917,-1.53869 -1.67865,-1.76944 -3.27048,-4.68881 -1.59187,-2.91937 -1.34279,-3.82708 -1.62187,-4.98043 -1.04565,0.99585 -1.57923,1.91684 -1.63524,4.21354 -0.11422,4.67846 1.62232,8.03596 2.68039,9.14698 1.04302,0.85684 2.09181,1.20349 2.97201,1.32307 0.0245,0.003 0.0502,0.0107 0.0744,0.0137 0.009,0.002 0.0185,-10e-4 0.0274,0 0.47175,0.0742 1.01095,0.0346 1.58077,0.0404 3.91614,0 8.30539,-4.81365 8.30539,-9.6216 0,-4.1297 -2.08068,-6.27602 -3.08716,-7.2198 -0.0211,-0.0481 -0.0388,-0.0922 -0.0613,-0.14222 -0.0346,-0.0629 -0.0913,-0.12616 -0.15592,-0.18332 1.73092,0.52857 6.24276,2.65983 10.36143,2.65983 4.2651,0 4.7361,-1.00437 4.7361,-1.00437 0,0 -2.9506,-3.72488 -8.22384,-3.72488 -2.47671,0 -1.93593,0.5428 -3.87461,0.5428 -1.93872,0 -4.72728,-0.44013 -7.88459,-1.36385 -0.53909,-0.15771 7.26626,-0.35961 7.65397,-5.1569 0.33026,-4.08603 -3.16925,-4.30226 -4.30193,-4.30226 z m -26.72495,4.14405 c 0.32631,0.42452 0.64328,0.88503 0.94044,1.39973 0.0537,0.093 0.10017,0.17999 0.1507,0.27042 l 4.52962,0 c 0.0505,-0.0904 0.097,-0.17742 0.15071,-0.27042 0.29716,-0.5147 0.61412,-0.97521 0.94043,-1.39973 l -6.7119,0 z m -2.52022,0.6736 c -0.80919,0 -1.5247,0.39296 -1.97221,0.99655 l 3.94442,0 c -0.44752,-0.60359 -1.16302,-0.99655 -1.97221,-0.99655 z m 11.75235,0 c -0.80918,0 -1.5247,0.39296 -1.97221,0.99655 l 3.94441,0 c -0.44751,-0.60359 -1.163,-0.99655 -1.9722,-0.99655 z m -13.33149,4.33684 c 0.42704,0.35898 0.97752,0.57607 1.57914,0.57607 0.34238,0 0.66746,-0.077 0.96359,-0.20355 0.0122,0.004 0.0213,0.01 0.0339,0.0134 0.66283,0.38268 1.1916,0.81937 1.61958,1.28425 l 1.58371,0 c -0.36982,-0.44935 -0.686,-0.80931 -0.686,-0.80931 0,0 -0.26133,-0.35198 -0.54769,-0.86084 l -4.54626,0 z m 6.57849,0 c 0.14757,0.61429 0.21021,1.1581 0.23584,1.67014 l 1.28197,0 c 0.0256,-0.51204 0.0883,-1.05585 0.23584,-1.67014 l -1.75365,0 z m 3.78588,0 c -0.28636,0.50886 -0.54769,0.86084 -0.54769,0.86084 0,0 -0.31619,0.35995 -0.686,0.8093 l 1.5837,0 c 0.42799,-0.46487 0.95675,-0.90156 1.61959,-1.28425 0.0127,-0.003 0.0217,-0.01 0.0339,-0.0134 0.29612,0.12653 0.62123,0.20354 0.9636,0.20354 0.60162,0 1.15209,-0.21708 1.57913,-0.57607 l -4.54625,0 z m -10.90619,4.17536 c 1.12436,0.83164 2.0961,1.74371 2.81968,2.62461 l 0,-0.95446 0.64098,0 c -0.30844,-0.43863 -0.75206,-1.01995 -1.25456,-1.67015 l -2.2061,0 z m 6.18639,0 c 0.34854,1.02378 0.47613,1.98724 0.6573,2.66343 0.0596,0.22229 0.10889,0.44537 0.15135,0.67067 l 0,-1.66395 2.37833,0 c 0.10717,-0.51027 0.23163,-1.07424 0.4345,-1.67015 l -3.62148,0 z m 7.60178,0 c -0.50251,0.6502 -0.94613,1.23152 -1.25457,1.67015 l 1.14203,0 0,0.38263 c 0.64824,-0.69798 1.43617,-1.40005 2.31863,-2.05278 l -2.20609,0 z m -2.61776,3.82601 c -0.55727,0.87152 -1.1862,1.85544 -1.67015,2.71398 l 0,2.12455 c 0.39117,-1.0345 0.94129,-2.27552 1.67015,-3.46099 l 0,-1.37754 z m -5.84551,0.78777 0,1.46138 c 0.8384,1.56139 1.3795,3.10476 1.67014,4.05271 l 0,-2.62232 c -0.35898,-0.78704 -1.02034,-1.8662 -1.67014,-2.89177 z m -2.50522,7.91819 c -0.63483,0.0401 -1.21334,0.28335 -1.67015,0.66871 l 0,4.33586 -0.0688,0 c 0.50964,0.45876 1.18196,0.74015 1.9223,0.74015 0.57662,0 1.11714,-0.16934 1.5674,-0.46125 0.11464,0.0477 0.21882,0.0895 0.35295,0.14255 0.27557,0.45129 0.7924,0.58948 1.64894,3.78621 0.85655,3.19672 0.2714,6.41544 0.2714,10.14418 -1.15152,-1.9945 -2.38527,-5.12664 -6.08658,-8.82797 -3.70131,-3.70132 -7.78247,-4.11208 -10.5242,-4.11208 2.13856,0 5.42252,4.64672 5.80832,6.08657 0.38582,1.43986 3.00162,4.5862 5.53693,5.26553 2.53532,0.67933 5.26553,3.44915 5.26553,5.25868 0,1.80954 -0.2988,1.50866 -0.2988,2.63276 0,1.12411 0.54965,2.22567 0.54965,2.22567 l 0.90259,0 0.9026,0 c 0,0 0.54932,-1.10156 0.54932,-2.22567 0,-1.1241 -0.29847,-0.82322 -0.29847,-2.63276 0,-1.80953 2.73022,-4.57935 5.26552,-5.25868 2.53534,-0.67933 5.15113,-3.82567 5.53693,-5.26553 0.38582,-1.43985 3.66979,-6.08657 5.80832,-6.08657 -2.74171,0 -6.82286,0.41076 -10.5242,4.11208 -3.70131,3.70133 -4.93502,6.83347 -6.08657,8.82797 0,-3.72874 -0.58512,-6.94746 0.2714,-10.14418 0.85656,-3.19673 1.37336,-3.33492 1.64894,-3.78621 0.13413,-0.0531 0.23829,-0.0948 0.35295,-0.14255 0.45024,0.29191 0.99076,0.46125 1.56739,0.46125 0.97486,0 1.83424,-0.485 2.35451,-1.22587 l 0,-3.30212 c -0.39414,-0.56126 -0.98353,-0.9731 -1.67014,-1.14073 l 0,4.92857 -2.50522,0 0,-4.3662 c -0.64802,0.52741 -1.06309,1.32941 -1.06309,2.22926 0,0.59622 0.18509,1.1487 0.4955,1.60817 -0.0838,0.0928 -1.47962,1.65166 -1.86619,3.09433 l 0,-2.56556 -1.47899,0 0,2.56556 c -0.38658,-1.44267 -1.78241,-3.00148 -1.8662,-3.09433 0.3104,-0.45947 0.4955,-1.01195 0.4955,-1.60817 0,-0.63734 -0.21049,-1.22387 -0.56204,-1.70048 l 0,3.83742 -2.50522,0 0,-5.00457 z"
     id="path3814-7-5"
     inkscape:connector-curvature="0" />
  <path
     style="fill:#ffffff;fill-opacity:1;stroke:none"
     d="m 24.801667,30.3985 0,1.67003 30.8977,0 0,-1.67003 -30.8977,0 z m 5.84551,5.01009 0,1.67003 19.20668,0 0,-1.67003 -19.20668,0 z m 0,4.17508 0,1.67003 2.50522,0 0,15.86529 1.67015,0 0,-15.86529 2.50522,0 0,15.86529 1.67014,0 0,-15.86529 2.50522,0 0,15.86529 1.67015,0 0,-15.86529 2.50522,0 0,15.86529 1.67014,0 0,-15.86529 2.50522,0 0,-1.67003 -19.20668,0 z"
     id="rect4499-5-1"
     inkscape:connector-curvature="0" />
  <path
     style="fill:#212121;fill-opacity:1;stroke:none"
     d="m 24.801667,26.22129 0,4.17536 30.8977,0 0,-4.17536 -30.8977,0 z m 0,5.84551 5.84551,3.34029 19.20668,0 5.84551,-3.34029 -30.8977,0 z m 5.84551,5.01044 0,2.50522 19.20668,0 0,-2.50522 -19.20668,0 z m 0,4.17536 0,15.86639 2.50522,0 0,-15.86639 -2.50522,0 z m 4.17537,0 0,15.86639 2.50522,0 0,-15.86639 -2.50522,0 z m 4.17536,0 0,15.86639 2.50522,0 0,-15.86639 -2.50522,0 z m 4.17537,0 0,15.86639 2.50522,0 0,-15.86639 -2.50522,0 z m 4.17536,0 0,15.86639 2.50522,0 0,-15.86639 -2.50522,0 z"
     id="rect3818-1-9-0"
     inkscape:connector-curvature="0" />
</svg>
