<?xml version="1.0" encoding="UTF-8" standalone="no"?>
<!-- Created with Inkscape (http://www.inkscape.org/) -->

<svg
   xmlns:dc="http://purl.org/dc/elements/1.1/"
   xmlns:cc="http://creativecommons.org/ns#"
   xmlns:rdf="http://www.w3.org/1999/02/22-rdf-syntax-ns#"
   xmlns:svg="http://www.w3.org/2000/svg"
   xmlns="http://www.w3.org/2000/svg"
   xmlns:sodipodi="http://sodipodi.sourceforge.net/DTD/sodipodi-0.dtd"
   xmlns:inkscape="http://www.inkscape.org/namespaces/inkscape"
   width="293.83405"
   height="142"
   id="svg4002"
   version="1.1"
   inkscape:version="0.91 r13725"
   sodipodi:docname="logo-text.svg">
  <defs
     id="defs4004" />
  <sodipodi:namedview
     id="base"
     pagecolor="#ffffff"
     bordercolor="#666666"
     borderopacity="1.0"
     inkscape:pageopacity="0.0"
     inkscape:pageshadow="2"
     inkscape:zoom="3.178665"
     inkscape:cx="146.91702"
     inkscape:cy="36.279587"
     inkscape:document-units="px"
     inkscape:current-layer="svg4002"
     showgrid="false"
     fit-margin-top="0"
     fit-margin-left="0"
     fit-margin-right="0"
     fit-margin-bottom="0"
     inkscape:window-width="1440"
     inkscape:window-height="837"
     inkscape:window-x="3192"
     inkscape:window-y="187"
     inkscape:window-maximized="1" />
  <metadata
     id="metadata4007">
    <rdf:RDF>
      <cc:Work
         rdf:about="">
        <dc:format>image/svg+xml</dc:format>
        <dc:type
           rdf:resource="http://purl.org/dc/dcmitype/StillImage" />
        <dc:title></dc:title>
      </cc:Work>
    </rdf:RDF>
  </metadata>
  <!--<g
     inkscape:label="Layer 1"
     inkscape:groupmode="layer"
     id="layer1"
     transform="translate(-94.785713,-181.43362)">-->
  <g
     id="g4146"
     transform="matrix(0.29645094,0,0,0.29645095,75.917,-2.9645095e-6)">
    <path
       inkscape:connector-curvature="0"
       id="path3814-7-5"
       d="m 239.5001,1e-5 c 0,15.6425 -17.7544,52.67714 -17.7544,78.6145 0,25.93737 9.8736,59.25566 12.5133,69.10764 2.64,9.85198 0.8396,23.58317 -2.3158,29.04877 -1.2974,-4.84116 -2.6497,-20.12608 -8.8567,-30.87701 -6.2073,-10.75094 -18.3715,-28.31789 -31.202,-50.54081 -12.8304,-22.22291 -11.0778,-29.26334 -13.4479,-38.10874 -7.8796,7.8797 -11.8227,15.09781 -11.8227,32.82714 0,36.11532 14.1764,56.06328 22.5484,64.43547 8.3722,8.37219 24.4097,16.01703 35.8743,35.87421 11.4644,19.85716 10.7257,29.76846 10.7257,40.09949 -2.5484,-4.41406 -10.4007,-13.32587 -10.4007,-13.32587 0,0 -4.686,-6.23857 -6.7443,-12.96022 0.2685,-1.11149 0.4064,-2.25937 0.4064,-3.45335 0,-8.12342 -6.584,-14.70721 -14.7073,-14.70721 -8.1233,0 -14.7071,6.58379 -14.7071,14.70721 0,8.12344 6.5838,14.70721 14.7071,14.70721 2.05,0 3.9961,-0.4612 5.7692,-1.21883 0.073,0.0211 0.1275,0.0608 0.2031,0.0813 19.0291,10.98634 19.8144,29.34299 22.3045,38.63689 2.4906,9.29391 2.2752,18.71691 2.2752,32.58338 -2.0694,-7.72378 -15.5748,-26.94535 -20.3544,-35.22417 -4.7799,-8.27882 -28.7198,-35.89564 -39.8964,-55.2536 -11.1761,-19.35794 -8.7712,-30.93587 -15.8447,-43.1872 -7.0733,-12.25132 -25.3271,-22.87486 -28.2769,-33.88346 -2.9496,-11.00861 -5.997,-7.8825 -6.9879,-4.18464 -7.1599,26.72034 13.9413,63.62869 24.6203,74.30797 10.6793,10.67926 24.1863,22.79346 29.2519,31.56768 -9.6777,2.59319 -20.8496,-6.94733 -29.6987,-6.94733 -24.6088,0 -39.9449,-6.26692 -48.672103,-13.04147 -6.6888,-5.19215 -8.8972,-7.85275 -8.8974,-16.21043 0,-8.35769 5.5721,-11.17261 9.7507,-11.17261 4.179003,0 10.147403,1.6e-4 3.697003,11.17261 -6.450503,11.17246 1.1843,9.71 3.7378,9.71 2.5538,0 12.9602,1.39875 12.9602,-15.31662 0,-16.71538 -13.8976,-20.67947 -20.679403,-20.67947 -6.782,0 -27.7355,1.29281 -25.758,25.75793 2.3215,28.72375 49.055903,29.93267 45.828003,30.87701 -18.9043,5.53077 -35.601403,8.16616 -47.209203,8.16616 -11.608,0 -8.3693,-3.25021 -23.1985,-3.25021 C 17.667197,218.73933 0,241.0439 0,241.0439 c 0,0 2.8208,6.01289 28.358097,6.01289 24.6605,0 51.6747,-12.76121 62.0384,-15.92604 -0.3871,0.3423 -0.7274,0.7203 -0.9344,1.09695 -0.1351,0.29953 -0.2392,0.565 -0.3657,0.85318 -6.0262,5.65085 -18.4855,18.50125 -18.4855,43.22782 0,28.7876 26.2803,57.61001 49.728203,57.61001 3.4118,-0.0352 6.6416,0.20032 9.4663,-0.24377 0.053,-0.008 0.1105,0.009 0.1625,0 0.1448,-0.0178 0.3005,-0.0614 0.4469,-0.0813 5.2702,-0.71596 11.5499,-2.79206 17.7949,-7.92239 6.3353,-6.65224 16.7317,-26.7538 16.048,-54.76608 -0.3357,-13.75146 -3.5304,-19.26716 -9.7914,-25.22977 -1.6708,6.90566 -0.179,12.34097 -9.7099,29.8207 -9.5312,17.47972 -16.7732,18.86082 -19.5827,28.0737 -4.0568,13.30363 -0.8246,16.05527 -4.9971,25.67668 -8.0477,-0.17862 -27.710303,-13.29088 -32.217803,-21.61391 -5.3274,-8.61826 -9.9537,-9.50106 -9.9537,-34.57413 0,-7.80901 2.6178,-16.05789 7.3942,-23.72655 0.018,1.27376 -0.031,2.55759 -0.2843,4.10339 1.1211,-2.34017 -3.7475,33.37329 17.835503,38.71816 18.3832,4.55249 21.9473,-11.2493 22.7921,-16.41358 0.8444,-5.16428 -0.4351,-16.24144 -13.1633,-18.32307 -12.728203,-2.08164 -12.967303,6.01842 -13.285303,7.96302 -0.318,1.94461 -2.3636,7.58315 6.947403,4.06277 9.3105,-3.52038 8.5645,1.04312 8.0441,4.22527 -0.5204,3.18186 -3.3458,7.05372 -9.7099,6.0129 -6.364103,-1.04093 -6.995803,-5.31082 -10.116403,-11.05072 -1.4979,-2.75547 -4.286,-19.05574 -0.4875,-30.06447 11.682003,-11.75421 29.093203,-20.27319 49.972103,-20.27319 25.4333,0.6631 53.3563,19.71646 65.9386,36.15861 17.8779,17.77264 25.1892,48.7938 25.1892,48.7938 l 0,54.11603 c -2.3146,-8.63798 -10.6709,-17.97021 -11.1726,-18.5262 1.8585,-2.75102 2.9658,-6.05889 2.9658,-9.62876 0,-9.51965 -7.7471,-17.22612 -17.2667,-17.22612 -9.5199,0 -17.2261,7.70647 -17.2261,17.22612 0,9.51965 7.7062,17.22613 17.2261,17.22613 3.4525,0 6.689,-1.01486 9.3849,-2.76268 0.6864,0.28572 1.3096,0.53541 2.1127,0.85318 1.65,2.70212 4.7439,3.52984 9.8724,22.67023 5.1286,19.14036 1.6251,38.41251 1.6251,60.73833 -6.8947,-11.94203 -14.2813,-30.6949 -36.4429,-52.85657 -22.1616,-22.16166 -46.5975,-24.62036 -63.0136,-24.62036 12.8046,0 32.4673,27.82186 34.7773,36.44301 2.3101,8.62116 17.972,27.45956 33.1522,31.52705 15.1802,4.0675 31.527,20.65184 31.527,31.48643 0,10.8346 -1.7876,9.03295 -1.7876,15.76353 0,6.73058 3.2909,13.32587 3.2909,13.32587 l 5.4036,0 5.4034,0 c 0,0 3.2908,-6.59529 3.2908,-13.32587 0,-6.73058 -1.7877,-4.92893 -1.7877,-15.76353 0,-10.83459 16.347,-27.41893 31.5271,-31.48643 15.1803,-4.06749 30.8422,-22.90589 33.1522,-31.52705 2.3101,-8.62115 21.9727,-36.44301 34.7772,-36.44301 -16.416,0 -40.8516,2.4587 -63.0134,24.62036 -22.1616,22.16167 -29.5482,40.91454 -36.4431,52.85657 0,-22.32582 -3.5033,-41.59797 1.6251,-60.73833 5.1287,-19.14039 8.2226,-19.96811 9.8726,-22.67023 0.8031,-0.31777 1.4262,-0.56746 2.1127,-0.85318 2.6958,1.74782 5.9324,2.76268 9.385,2.76268 9.5198,0 17.2261,-7.70648 17.2261,-17.22613 0,-9.51965 -7.7063,-17.22612 -17.2261,-17.22612 -9.5197,0 -17.2668,7.70647 -17.2668,17.22612 0,3.56987 1.1073,6.87774 2.9659,9.62876 -0.5018,0.55599 -8.8581,9.88822 -11.1727,18.5262 l 0,-54.11603 c 0,0 7.3112,-31.02116 25.1892,-48.7938 12.5822,-16.44215 40.5053,-35.49551 65.9387,-36.15861 20.8788,0 38.29,8.51898 49.9719,20.27319 3.7984,11.00873 1.0105,27.309 -0.4876,30.06447 -3.1205,5.7399 -3.7521,10.00979 -10.1162,11.05072 -6.3641,1.04082 -9.1895,-2.83104 -9.71,-6.0129 -0.5205,-3.18215 -1.2663,-7.74565 8.0444,-4.22527 9.3106,3.52038 7.2652,-2.11816 6.9472,-4.06277 -0.318,-1.9446 -0.5571,-10.04466 -13.2852,-7.96302 -12.7282,2.08163 -14.0078,13.15879 -13.1633,18.32307 0.8445,5.16428 4.4088,20.96607 22.792,16.41358 21.583,-5.34487 16.7144,-41.05833 17.8356,-38.71816 -0.2532,-1.5458 -0.3026,-2.82963 -0.2844,-4.10339 4.7764,7.66866 7.3942,15.91754 7.3942,23.72655 0,25.07307 -4.6262,25.95587 -9.9538,34.57413 -4.5073,8.32303 -24.17,21.43529 -32.2177,21.61391 -4.1725,-9.62141 -0.9403,-12.37305 -4.9973,-25.67668 -2.8092,-9.21288 -10.0513,-10.59398 -19.5824,-28.0737 -9.5313,-17.47973 -8.039,-22.91504 -9.71,-29.8207 -6.2608,5.96261 -9.4558,11.47831 -9.7912,25.22977 -0.6839,28.01228 9.7126,48.11384 16.0478,54.76608 6.2451,5.13033 12.5247,7.20643 17.7949,7.92239 0.1464,0.0199 0.3021,0.0634 0.447,0.0813 0.052,0.009 0.1092,-0.008 0.1625,0 2.8246,0.44409 6.0544,0.20854 9.4662,0.24377 23.4479,0 49.7282,-28.82241 49.7282,-57.61001 0,-24.72657 -12.4593,-37.57697 -18.4856,-43.22782 -0.1262,-0.28818 -0.2305,-0.55365 -0.3656,-0.85318 -0.207,-0.37665 -0.5473,-0.75465 -0.9345,-1.09695 10.3639,3.16483 37.378,15.92604 62.0385,15.92604 25.5373,0 28.3581,-6.01289 28.3581,-6.01289 0,0 -17.6672,-22.30457 -49.2407,-22.30457 -14.8293,0 -11.5905,3.25021 -23.1983,3.25021 -11.6081,0 -28.3051,-2.63539 -47.2095,-8.16616 -3.2278,-0.94434 43.5066,-2.15326 45.828,-30.87701 1.9774,-24.46512 -18.9759,-25.75793 -25.7578,-25.75793 -6.7819,0 -20.6795,3.96409 -20.6795,20.67947 0,16.71537 10.4064,15.31662 12.9601,15.31662 2.5536,0 10.1884,1.46246 3.7378,-9.71 -6.4503,-11.17245 -0.4819,-11.17261 3.6971,-11.17261 4.1786,0 9.7507,2.81492 9.7507,11.17261 -3e-4,8.35768 -2.2086,11.01828 -8.8975,16.21043 -8.7273,6.77455 -24.0632,13.04147 -48.6718,13.04147 -8.8496,0 -20.0211,9.54052 -29.6989,6.94733 5.0658,-8.77422 18.5725,-20.88842 29.2519,-31.56768 10.679,-10.67928 31.7802,-47.58763 24.6203,-74.30797 -0.9909,-3.69786 -4.0383,-6.82397 -6.9879,4.18464 -2.9498,11.0086 -21.2036,21.63214 -28.2769,33.88346 -7.0735,12.25133 -4.6687,23.82926 -15.8447,43.1872 -11.1766,19.35796 -35.1166,46.97478 -39.8964,55.2536 -4.7796,8.27882 -18.285,27.50039 -20.3545,35.22417 0,-13.86647 -0.2153,-23.28947 2.2751,-32.58338 2.4903,-9.2939 3.2755,-27.65055 22.3047,-38.63689 0.076,-0.0204 0.1302,-0.0602 0.2032,-0.0813 1.773,0.75763 3.7191,1.21883 5.769,1.21883 8.1234,0 14.7073,-6.58377 14.7073,-14.70721 0,-8.12342 -6.5839,-14.70721 -14.7073,-14.70721 -8.1232,0 -14.7071,6.58379 -14.7071,14.70721 0,1.19398 0.1378,2.34186 0.4061,3.45335 -2.0581,6.72165 -6.744,12.96022 -6.744,12.96022 0,0 -7.8524,8.91181 -10.4007,13.32587 0,-10.33103 -0.7388,-20.24233 10.7257,-40.09949 11.4647,-19.85718 27.502,-27.50202 35.8742,-35.87421 8.372,-8.37218 22.5482,-28.32015 22.5482,-64.43547 2e-4,-17.72933 -3.943,-24.94744 -11.8225,-32.82714 -2.3702,8.8454 -0.6173,15.88583 -13.4477,38.10874 -12.8306,22.22292 -24.9949,39.78987 -31.2021,50.54081 -6.2071,10.75093 -7.5594,26.03585 -8.8569,30.87701 -3.1553,-5.4656 -4.9557,-19.19679 -2.3157,-29.04877 2.6397,-9.85198 12.5133,-43.17026 12.5133,-69.10764 0,-25.93736 -17.7542,-62.972 -17.7542,-78.6145 z"
       style="fill:#9e9e9e;fill-opacity:1;stroke:none" />
    <path
       inkscape:connector-curvature="0"
       id="rect3818-1-9"
       d="m 148.5,157 0,25 185,0 0,-25 -185,0 z m 0,35 35,20 115,0 35,-20 -185,0 z m 35,30 0,15 115,0 0,-15 -115,0 z m 0,25 0,95 15,0 0,-95 -15,0 z m 25,0 0,95 15,0 0,-95 -15,0 z m 25,0 0,95 15,0 0,-95 -15,0 z m 25,0 0,95 15,0 0,-95 -15,0 z m 25,0 0,95 15,0 0,-95 -15,0 z"
       style="fill:#212121;fill-opacity:1;stroke:none" />
    <path
       inkscape:connector-curvature="0"
       id="rect4499-5-1"
       d="m 148.5,182.01108 0,9.99931 185,0 0,-9.99931 -185,0 z m 35,29.99792 0,9.99931 115,0 0,-9.99931 -115,0 z m 0,24.99827 0,9.99931 15,0 0,94.99342 10,0 0,-94.99342 15,0 0,94.99342 10,0 0,-94.99342 15,0 0,94.99342 10,0 0,-94.99342 15,0 0,94.99342 10,0 0,-94.99342 15,0 0,-9.99931 -115,0 z"
       style="fill:#ffffff;fill-opacity:1;stroke:none" />
  </g>
  <g
     style="font-style:normal;font-variant:normal;font-weight:bold;font-stretch:normal;font-size:30px;line-height:125%;font-family:Titillium;-inkscape-font-specification:'Titillium Bold';letter-spacing:0px;word-spacing:0px;fill:#000000;fill-opacity:1;stroke:none;stroke-width:1px;stroke-linecap:butt;stroke-linejoin:miter;stroke-opacity:1"
     id="text4151">
    <path
       d="m 8.4599999,125.39998 c -3.36,0 -4.2,-2.13 -4.2,-6.84 0,-4.71 0.84,-7.08 4.2,-7.08 3.3600001,0 4.2000001,2.37 4.2000001,7.08 0,4.71 -0.84,6.84 -4.2000001,6.84 z m 0,3.6 c 6.4200001,0 8.4600001,-3.54 8.4600001,-10.44 0,-6.9 -2.04,-10.68 -8.4600001,-10.68 -6.42,0 -8.459999952452086,3.78 -8.459999952452086,10.68 0,6.9 2.039999952452088,10.44 8.459999952452086,10.44 z"
       style=""
       id="path4156" />
    <path
       d="m 20.470312,128.63998 4.14,0 0,-15.78 0.45,0 3.99,14.88 4.14,0 3.99,-14.88 0.45,0 0,15.78 4.14,0 0,-20.4 -7.05,0 -3.6,14.88 -3.6,-14.88 -7.05,0 0,20.4 z"
       style=""
       id="path4158" />
    <path
       d="m 57.802969,128.63998 0,-3.66 -7.47,0 0,-16.74 -4.14,0 0,20.4 11.61,0 z"
       style=""
       id="path4160" />
    <path
       d="m 79.83375,124.91998 c -1.2,0.18 -3.75,0.42 -5.13,0.42 -3.54,0 -4.26,-1.41 -4.26,-6.9 0,-5.79 0.99,-6.9 4.14,-6.9 1.35,0 3.87,0.24 5.25,0.45 l 0.12,-3.3 c -1.26,-0.3 -3.84,-0.81 -5.97,-0.81 -6.06,0 -7.8,2.82 -7.8,10.56 0,7.14 1.5,10.56 7.8,10.56 1.86,0 4.56,-0.39 5.94,-0.69 l -0.09,-3.39 z"
       style=""
       id="path4162" />
    <path
       d="m 90.667031,125.39998 c -3.36,0 -4.2,-2.13 -4.2,-6.84 0,-4.71 0.84,-7.08 4.2,-7.08 3.36,0 4.2,2.37 4.2,7.08 0,4.71 -0.84,6.84 -4.2,6.84 z m 0,3.6 c 6.42,0 8.46,-3.54 8.46,-10.44 0,-6.9 -2.04,-10.68 -8.46,-10.68 -6.42,0 -8.46,3.78 -8.46,10.68 0,6.9 2.04,10.44 8.46,10.44 z"
       style=""
       id="path4164" />
    <path
       d="m 102.67734,128.63998 4.14,0 0,-16.8 0.3,0 5.1,16.8 6.81,0 0,-20.4 -4.14,0 0,16.8 -0.3,0 -4.92,-16.8 -6.99,0 0,20.4 z"
       style=""
       id="path4166" />
    <path
       d="m 121.64812,111.89998 5.46,0 0,16.74 4.14,0 0,-16.74 5.4,0 0,-3.66 -15,0 0,3.66 z"
       style=""
       id="path4168" />
    <path
       d="m 147.36984,121.79998 2.37,6.84 4.53,0 -2.91,-7.8 c 1.86,-1.17 3,-3.06 3,-5.88 0,-4.65 -2.55,-6.72 -7.2,-6.72 l -7.92,0 0,20.4 4.14,0 0,-6.84 3.99,0 z m 2.76,-6.78 c 0,1.8 -0.84,3.24 -2.91,3.24 l -3.84,0 0,-6.48 3.78,0 c 1.98,0 2.97,1.29 2.97,3.24 z"
       style=""
       id="path4170" />
    <path
       d="m 155.86969,128.63998 4.14,0 0.81,-3.69 7.14,0 0.81,3.69 4.14,0 -4.59,-20.4 -7.86,0 -4.59,20.4 z m 7.8,-16.98 1.44,0 2.07,9.69 -5.58,0 2.07,-9.69 z"
       style=""
       id="path4172" />
    <path
       d="m 188.17359,124.91998 c -1.2,0.18 -3.75,0.42 -5.13,0.42 -3.54,0 -4.26,-1.41 -4.26,-6.9 0,-5.79 0.99,-6.9 4.14,-6.9 1.35,0 3.87,0.24 5.25,0.45 l 0.12,-3.3 c -1.26,-0.3 -3.84,-0.81 -5.97,-0.81 -6.06,0 -7.8,2.82 -7.8,10.56 0,7.14 1.5,10.56 7.8,10.56 1.86,0 4.56,-0.39 5.94,-0.69 l -0.09,-3.39 z"
       style=""
       id="path4174" />
    <path
       d="m 189.79266,111.89998 5.46,0 0,16.74 4.14,0 0,-16.74 5.4,0 0,-3.66 -15,0 0,3.66 z"
       style=""
       id="path4176" />
    <path
       d="m 207.38437,128.63998 4.14,0 0,-20.4 -4.14,0 0,20.4 z"
       style=""
       id="path4178" />
    <path
       d="m 215.93906,128.63998 4.14,0 0,-16.8 0.3,0 5.1,16.8 6.81,0 0,-20.4 -4.14,0 0,16.8 -0.3,0 -4.92,-16.8 -6.99,0 0,20.4 z"
       style=""
       id="path4180" />
    <path
       d="m 245.22984,121.31998 1.86,0 0,3.96 c 0,0 -1.26,0.12 -2.49,0.12 -3.72,0 -4.47,-1.53 -4.47,-6.96 0,-5.73 1.05,-6.9 4.59,-6.9 2.73,0 6.33,0.39 6.33,0.39 l 0.12,-3.21 c 0,0 -3.96,-0.84 -7.11,-0.84 -6.03,0 -8.19,3.12 -8.19,10.56 0,6.84 1.68,10.56 8.34,10.56 2.67,0 6.96,-0.69 6.96,-0.69 l 0,-10.59 -5.94,0 0,3.6 z"
       style=""
       id="path4182" />
    <path
       d="m 274.54078,124.91998 c -1.2,0.18 -3.75,0.42 -5.13,0.42 -3.54,0 -4.26,-1.41 -4.26,-6.9 0,-5.79 0.99,-6.9 4.14,-6.9 1.35,0 3.87,0.24 5.25,0.45 l 0.12,-3.3 c -1.26,-0.3 -3.84,-0.81 -5.97,-0.81 -6.06,0 -7.8,2.82 -7.8,10.56 0,7.14 1.5,10.56 7.8,10.56 1.86,0 4.56,-0.39 5.94,-0.69 l -0.09,-3.39 z"
       style=""
       id="path4184" />
    <path
       d="m 285.37406,125.39998 c -3.36,0 -4.2,-2.13 -4.2,-6.84 0,-4.71 0.84,-7.08 4.2,-7.08 3.36,0 4.2,2.37 4.2,7.08 0,4.71 -0.84,6.84 -4.2,6.84 z m 0,3.6 c 6.42,0 8.46,-3.54 8.46,-10.44 0,-6.9 -2.04,-10.68 -8.46,-10.68 -6.42,0 -8.46,3.78 -8.46,10.68 0,6.9 2.04,10.44 8.46,10.44 z"
       style=""
       id="path4186" />
  </g>
</svg>
