<svg xmlns:svg="http://www.w3.org/2000/svg" xmlns="http://www.w3.org/2000/svg" width="479" height="479" version="1.1"><path d="m239.5 0c0 15.6-17.8 52.7-17.8 78.6 0 25.9 9.9 59.3 12.5 69.1 0.8 2.9 1.1 6.1 1.2 9.3l8 0c0.1-3.2 0.5-6.4 1.2-9.3 2.6-9.9 12.5-43.2 12.5-69.1C257.3 52.7 239.5 15.6 239.5 0Zm-61.1 57.2c-7.9 7.9-11.8 15.1-11.8 32.8 0 36.1 14.2 56.1 22.5 64.4 0.8 0.8 1.8 1.7 2.7 2.5l35.8 0c-1.1-3.8-2.6-7.7-4.6-11.1C216.9 135.1 204.7 117.6 191.9 95.4 179.1 73.1 180.8 66.1 178.4 57.2Zm122.1 0c-2.4 8.8-0.6 15.9-13.4 38.1-12.8 22.2-25 39.8-31.2 50.5-2 3.4-3.4 7.3-4.6 11.1l35.8 0c1-0.8 1.9-1.7 2.7-2.5 8.4-8.4 22.5-28.3 22.5-64.4 0-17.7-3.9-24.9-11.8-32.8zm-174.3 53.1c-1.3-0.1-2.3 1.6-2.8 3.4-7.2 26.7 13.9 63.6 24.6 74.3 0.1 0.1 0.2 0.2 0.4 0.4l0 3.5 185 0 0-6.8c11.1-13.4 28.6-46.7 22-71.4-0.5-1.8-1.5-3.6-2.8-3.4-1.3 0.1-2.8 2.1-4.2 7.6-2.9 11-21.2 21.6-28.3 33.9-1 1.7-1.8 3.4-2.5 5.1l15.7 0 0 25-23 0c0 0 0 0 0 0l-50.9 0c0 0 0 0 0 0l-40.2 0c0 0 0 0 0 0l-50.9 0c0 0 0 0 0 0l-20 0 0-25 12.7 0c-0.7-1.7-1.5-3.4-2.5-5.1-7.1-12.3-25.3-22.9-28.3-33.9-1.5-5.5-3-7.5-4.2-7.6zm-26.7 46.8c-6.8 0-27.7 1.3-25.8 25.8 2.3 28.7 49.1 29.9 45.8 30.9-18.9 5.5-35.6 8.2-47.2 8.2-11.6 0-8.4-3.2-23.2-3.2C17.7 218.7 0 241 0 241c0 0 2.8 6 28.4 6 24.7 0 51.7-12.8 62-15.9-0.4 0.3-0.7 0.7-0.9 1.1-0.1 0.3-0.2 0.6-0.4 0.9-6 5.7-18.5 18.5-18.5 43.2 0 28.8 26.3 57.6 49.7 57.6 3.4 0 6.6 0.2 9.5-0.2 0.1 0 0.1 0 0.2 0 0.1 0 0.3-0.1 0.4-0.1 5.3-0.7 11.5-2.8 17.8-7.9 6.3-6.7 16.7-26.8 16-54.8-0.3-13.8-3.5-19.3-9.8-25.2-1.7 6.9-0.2 12.3-9.7 29.8-9.5 17.5-16.8 18.9-19.6 28.1-4.1 13.3-0.8 16.1-5 25.7-8-0.2-27.7-13.3-32.2-21.6-5.3-8.6-10-9.5-10-34.6 0-7.8 2.6-16.1 7.4-23.7 0 1.3 0 2.6-0.3 4.1 1.1-2.3-3.7 33.4 17.8 38.7 18.4 4.6 21.9-11.2 22.8-16.4 0.8-5.2-0.4-16.2-13.2-18.3-12.7-2.1-13 6-13.3 8-0.3 1.9-2.4 7.6 6.9 4.1 9.3-3.5 8.6 1 8 4.2-0.5 3.2-3.3 7.1-9.7 6-6.4-1-7-5.3-10.1-11.1-1.5-2.8-4.3-19.1-0.5-30.1 11.7-11.8 29.1-20.3 50-20.3 13.4 0.3 27.4 5.8 39.6 13.2l0-9.5 115 0 0 7.7c11.4-6.5 24.3-11.1 36.6-11.5 20.9 0 38.3 8.5 50 20.3 3.8 11 1 27.3-0.5 30.1-3.1 5.7-3.8 10-10.1 11.1-6.4 1-9.2-2.8-9.7-6-0.5-3.2-1.3-7.7 8-4.2 9.3 3.5 7.3-2.1 6.9-4.1-0.3-1.9-0.6-10-13.3-8-12.7 2.1-14 13.2-13.2 18.3 0.8 5.2 4.4 21 22.8 16.4 21.6-5.3 16.7-41.1 17.8-38.7-0.3-1.5-0.3-2.8-0.3-4.1 4.8 7.7 7.4 15.9 7.4 23.7 0 25.1-4.6 26-10 34.6-4.5 8.3-24.2 21.4-32.2 21.6-4.2-9.6-0.9-12.4-5-25.7-2.8-9.2-10.1-10.6-19.6-28.1-9.5-17.5-8-22.9-9.7-29.8-6.3 6-9.5 11.5-9.8 25.2-0.7 28 9.7 48.1 16 54.8 6.2 5.1 12.5 7.2 17.8 7.9 0.1 0 0.3 0.1 0.4 0.1 0.1 0 0.1 0 0.2 0 2.8 0.4 6.1 0.2 9.5 0.2 23.4 0 49.7-28.8 49.7-57.6 0-24.7-12.5-37.6-18.5-43.2-0.1-0.3-0.2-0.6-0.4-0.9-0.2-0.4-0.5-0.8-0.9-1.1 10.4 3.2 37.4 15.9 62 15.9 25.5 0 28.4-6 28.4-6 0 0-17.7-22.3-49.2-22.3-14.8 0-11.6 3.3-23.2 3.3-11.6 0-28.3-2.6-47.2-8.2-3.2-0.9 43.5-2.2 45.8-30.9 2-24.5-19-25.8-25.8-25.8-6.8 0-20.7 4-20.7 20.7 0 16.7 10.4 15.3 13 15.3 2.6 0 10.2 1.5 3.7-9.7-6.5-11.2-0.5-11.2 3.7-11.2 4.2 0 9.8 2.8 9.8 11.2 0 8.4-2.2 11-8.9 16.2-8.7 6.8-24.1 13-48.7 13-8.8 0-20 9.5-29.7 6.9 3.1-5.3 9.3-11.9 16.1-18.7L298.5 212l-5.3 0c0 0 0 0 0 0l-9 0c0 0 0 0 0 0l-27.2 0c0 0 0 0 0 0l-12.2 0c0 0 0 0 0 0l-10.5 0c0 0 0 0 0 0l-12.2 0c0 0 0 0 0 0l-27.2 0c0 0 0 0 0 0l-9 0c0 0 0 0 0 0l-2.3 0-26.4-15.1c8.3 8.1 16.6 16.3 20.3 22.7-9.7 2.6-20.9-6.9-29.7-6.9-24.6 0-39.9-6.3-48.7-13-6.7-5.2-8.9-7.9-8.9-16.2 0-8.4 5.6-11.2 9.8-11.2 4.2 0 10.1 0 3.7 11.2-6.5 11.2 1.2 9.7 3.7 9.7 2.6 0 13 1.4 13-15.3 0-16.7-13.9-20.7-20.7-20.7zm92 79.8c0 0 0 0 0 0l-8.1 0 0 10 15 0 0 69 0 26-0.4 0c3.1 2.7 7.1 4.4 11.5 4.4 3.5 0 6.7-1 9.4-2.8 0.7 0.3 1.3 0.5 2.1 0.9 1.7 2.7 4.7 3.5 9.9 22.7 5.1 19.1 1.6 38.4 1.6 60.7-6.9-11.9-14.3-30.7-36.4-52.9-22.2-22.2-46.6-24.6-63-24.6 12.8 0 32.5 27.8 34.8 36.4 2.3 8.6 18 27.5 33.2 31.5 15.2 4.1 31.5 20.7 31.5 31.5 0 10.8-1.8 9-1.8 15.8 0 6.7 3.3 13.3 3.3 13.3l5.4 0 5.4 0c0 0 3.3-6.6 3.3-13.3 0-6.7-1.8-4.9-1.8-15.8 0-10.8 16.3-27.4 31.5-31.5 15.2-4.1 30.8-22.9 33.2-31.5 2.3-8.6 22-36.4 34.8-36.4-16.4 0-40.9 2.5-63 24.6-22.2 22.2-29.5 40.9-36.4 52.9 0-22.3-3.5-41.6 1.6-60.7 5.1-19.1 8.2-20 9.9-22.7 0.8-0.3 1.4-0.6 2.1-0.9 2.7 1.7 5.9 2.8 9.4 2.8 4.4 0 8.5-1.7 11.5-4.4l2.6 0 0-2.9 0-19.8 0-72.3 15 0 0-10-11.1 0c0 0 0 0 0 0l-13.2 0c0 0 0 0 0 0l-23.8 0c0 0 0 0 0 0l-21.7 0c0 0 0 0 0 0l-23.8 0c0 0 0 0 0 0l-13.2 0zm16.9 10 15 0 0 17.6 0 8.8 0 45.6 0 23-15 0 0-30 0-59.3 0-5.7zm25 0 15 0 0 29.2 0 12.7 0 53.1 4 0c-2.8 3.6-7 9.6-8.6 15.4l0-15.4-8.9 0 0 15.4c-1.5-5.8-5.8-11.8-8.6-15.4l7 0 0-44.4 0-15.7 0-25 0-10zm25 0 15 0 0 2.3 0 63.2 0 29.5-15 0 0-26.1 0-47.7 0-8.2 0-12.9z" fill="#2e3c55"/></svg>