<?xml version="1.0" encoding="UTF-8" standalone="no"?>
<!-- Created with Inkscape (http://www.inkscape.org/) -->

<svg
   xmlns:dc="http://purl.org/dc/elements/1.1/"
   xmlns:cc="http://creativecommons.org/ns#"
   xmlns:rdf="http://www.w3.org/1999/02/22-rdf-syntax-ns#"
   xmlns:svg="http://www.w3.org/2000/svg"
   xmlns="http://www.w3.org/2000/svg"
   xmlns:sodipodi="http://sodipodi.sourceforge.net/DTD/sodipodi-0.dtd"
   xmlns:inkscape="http://www.inkscape.org/namespaces/inkscape"
   width="479"
   height="479"
   id="svg4002"
   version="1.1"
   inkscape:version="0.91 r13725"
   sodipodi:docname="logo-monotone.svg">
  <defs
     id="defs4004" />
  <sodipodi:namedview
     id="base"
     pagecolor="#ffffff"
     bordercolor="#666666"
     borderopacity="1.0"
     inkscape:pageopacity="0.0"
     inkscape:pageshadow="2"
     inkscape:zoom="0.98994949"
     inkscape:cx="-21.267802"
     inkscape:cy="225.42426"
     inkscape:document-units="px"
     inkscape:current-layer="layer1"
     showgrid="false"
     fit-margin-top="0"
     fit-margin-left="0"
     fit-margin-right="0"
     fit-margin-bottom="0"
     inkscape:window-width="1920"
     inkscape:window-height="1017"
     inkscape:window-x="1272"
     inkscape:window-y="424"
     inkscape:window-maximized="1" />
  <metadata
     id="metadata4007">
    <rdf:RDF>
      <cc:Work
         rdf:about="">
        <dc:format>image/svg+xml</dc:format>
        <dc:type
           rdf:resource="http://purl.org/dc/dcmitype/StillImage" />
        <dc:title></dc:title>
      </cc:Work>
    </rdf:RDF>
  </metadata>
  <g
     inkscape:label="Layer 1"
     inkscape:groupmode="layer"
     id="layer1"
     transform="translate(-94.785713,-181.43362)">
    <path
       style="fill:#dfc793;fill-opacity:1;stroke:none"
       d="M 239.5 0 C 239.5 15.6425 221.74609 52.677874 221.74609 78.615234 C 221.74609 104.5526 231.62007 137.87068 234.25977 147.72266 C 235.02718 150.58649 235.40917 153.77889 235.50195 157 L 243.49805 157 C 243.59083 153.77889 243.97282 150.58649 244.74023 147.72266 C 247.37993 137.87068 257.25391 104.55261 257.25391 78.615234 C 257.25391 52.677874 239.5 15.6425 239.5 0 z M 178.4375 57.244141 C 170.5579 65.123841 166.61328 72.342936 166.61328 90.072266 C 166.61328 126.18759 180.79011 146.13562 189.16211 154.50781 C 189.99515 155.34086 190.92176 156.16861 191.89453 157 L 227.67383 157 C 226.52928 153.16011 225.05238 149.30054 223.08594 145.89453 C 216.87864 135.14359 204.71527 117.57644 191.88477 95.353516 C 179.05437 73.130606 180.8076 66.089541 178.4375 57.244141 z M 300.5625 57.244141 C 298.1923 66.089541 299.94563 73.130606 287.11523 95.353516 C 274.28463 117.57644 262.12126 135.14359 255.91406 145.89453 C 253.94759 149.30054 252.47073 153.16011 251.32617 157 L 287.10547 157 C 288.07823 156.16861 289.00485 155.34086 289.83789 154.50781 C 298.20989 146.13563 312.38672 126.18759 312.38672 90.072266 C 312.38692 72.342936 308.442 65.123841 300.5625 57.244141 z M 126.26758 110.375 C 125.01317 110.24268 124.00326 111.9499 123.50781 113.79883 C 116.34791 140.51917 137.44991 177.42619 148.12891 188.10547 C 148.24942 188.22598 148.37872 188.35176 148.5 188.47266 L 148.5 192.00977 L 333.5 192.00977 L 333.5 185.18359 C 344.62606 171.80624 362.10287 138.46951 355.49219 113.79883 C 354.99674 111.9499 353.98683 110.24268 352.73242 110.375 C 351.47801 110.50732 349.97871 112.47812 348.50391 117.98242 C 345.55411 128.99102 327.29986 139.61391 320.22656 151.86523 C 319.23557 153.58164 318.44404 155.28679 317.76172 157 L 333.5 157 L 333.5 182 L 310.52344 182 C 310.52206 182.00377 310.52091 182.00795 310.51953 182.01172 L 259.58594 182.01172 C 259.58876 182.00804 259.59092 182.00368 259.59375 182 L 219.40625 182 C 219.40908 182.00368 219.41124 182.00804 219.41406 182.01172 L 168.48047 182.01172 C 168.47909 182.00795 168.47794 182.00377 168.47656 182 L 148.5 182 L 148.5 157 L 161.23828 157 C 160.55596 155.28679 159.76443 153.58164 158.77344 151.86523 C 151.70014 139.61391 133.44589 128.99102 130.49609 117.98242 C 129.02129 112.47812 127.52199 110.50732 126.26758 110.375 z M 99.578125 157.1875 C 92.796125 157.1875 71.842813 158.48215 73.820312 182.94727 C 76.141813 211.67102 122.87634 212.87988 119.64844 213.82422 C 100.74414 219.35499 84.047253 221.99023 72.439453 221.99023 C 60.831453 221.99023 64.069434 218.74023 49.240234 218.74023 C 17.666734 218.74023 1.8947806e-014 241.04297 0 241.04297 C 0 241.04297 2.8201248 247.05664 28.357422 247.05664 C 53.017922 247.05664 80.032784 234.29569 90.396484 231.13086 C 90.009384 231.47316 89.669891 231.85187 89.462891 232.22852 C 89.327791 232.52805 89.222203 232.7919 89.095703 233.08008 C 83.069503 238.73093 70.611328 251.58202 70.611328 276.30859 C 70.611328 305.09619 96.891948 333.91797 120.33984 333.91797 C 123.75164 333.88277 126.97999 334.11987 129.80469 333.67578 C 129.85769 333.66778 129.91675 333.68478 129.96875 333.67578 C 130.11355 333.65798 130.26766 333.61365 130.41406 333.59375 C 135.68426 332.87779 141.96398 330.8022 148.20898 325.67188 C 154.54428 319.01963 164.94151 298.91658 164.25781 270.9043 C 163.92211 257.15284 160.7278 251.63839 154.4668 245.67578 C 152.796 252.58144 154.28676 258.01636 144.75586 275.49609 C 135.22466 292.97581 127.98333 294.35743 125.17383 303.57031 C 121.11703 316.87394 124.34828 319.62468 120.17578 329.24609 C 112.12808 329.06747 92.466484 315.95584 87.958984 307.63281 C 82.631584 299.01455 78.005859 298.13166 78.005859 273.05859 C 78.005859 265.24958 80.622037 257.00069 85.398438 249.33203 C 85.416438 250.60579 85.368534 251.88975 85.115234 253.43555 C 86.236334 251.09538 81.368174 286.80943 102.95117 292.1543 C 121.33437 296.70679 124.89739 280.90451 125.74219 275.74023 C 126.58659 270.57595 125.30828 259.49765 112.58008 257.41602 C 99.851876 255.33438 99.612922 263.43431 99.294922 265.37891 C 98.976922 267.32352 96.931186 272.96374 106.24219 269.44336 C 115.55269 265.92298 114.80556 270.48582 114.28516 273.66797 C 113.76476 276.84983 110.94027 280.72246 104.57617 279.68164 C 98.212074 278.64071 97.579584 274.37076 94.458984 268.63086 C 92.961084 265.87539 90.174156 249.57514 93.972656 238.56641 C 105.65466 226.8122 123.06446 218.29297 143.94336 218.29297 C 157.30467 218.64133 171.34966 224.06905 183.5 231.52344 L 183.5 222.00781 L 298.5 222.00781 L 298.5 229.74805 C 309.9304 223.22149 322.78153 218.61301 335.05664 218.29297 C 355.93544 218.29297 373.34544 226.8122 385.02734 238.56641 C 388.82574 249.57514 386.03912 265.87539 384.54102 268.63086 C 381.42052 274.37076 380.78793 278.64071 374.42383 279.68164 C 368.05973 280.72246 365.23534 276.84983 364.71484 273.66797 C 364.19434 270.48582 363.44907 265.92298 372.75977 269.44336 C 382.07037 272.96374 380.02308 267.32352 379.70508 265.37891 C 379.38708 263.43431 379.14802 255.33438 366.41992 257.41602 C 353.69172 259.49765 352.41331 270.57595 353.25781 275.74023 C 354.10231 280.90451 357.66563 296.70679 376.04883 292.1543 C 397.63183 286.80943 392.76357 251.09538 393.88477 253.43555 C 393.63157 251.88975 393.58336 250.60579 393.60156 249.33203 C 398.37796 257.00069 400.99414 265.24958 400.99414 273.05859 C 400.99414 298.13166 396.36862 299.01455 391.04102 307.63281 C 386.53372 315.95584 366.87192 329.06747 358.82422 329.24609 C 354.65172 319.62468 357.88317 316.87394 353.82617 303.57031 C 351.01697 294.35743 343.77524 292.97581 334.24414 275.49609 C 324.71284 258.01636 326.2042 252.58144 324.5332 245.67578 C 318.2724 251.63839 315.07759 257.15284 314.74219 270.9043 C 314.05829 298.91658 324.45582 319.01963 330.79102 325.67188 C 337.03612 330.8022 343.31574 332.87779 348.58594 333.59375 C 348.73234 333.61365 348.88635 333.65788 349.03125 333.67578 C 349.08325 333.68478 349.14201 333.66778 349.19531 333.67578 C 352.01991 334.11987 355.24836 333.88274 358.66016 333.91797 C 382.10806 333.91797 408.38867 305.09619 408.38867 276.30859 C 408.38867 251.58202 395.9306 238.73093 389.9043 233.08008 C 389.7781 232.7919 389.67221 232.52805 389.53711 232.22852 C 389.33011 231.85187 388.99072 231.47316 388.60352 231.13086 C 398.96742 234.29569 425.98208 247.05664 450.64258 247.05664 C 476.17988 247.05664 479 241.04297 479 241.04297 C 479 241.04297 461.33327 218.74023 429.75977 218.74023 C 414.93047 218.74023 418.16835 221.99023 406.56055 221.99023 C 394.95245 221.99023 378.25596 219.35499 359.35156 213.82422 C 356.12376 212.87988 402.85829 211.67102 405.17969 182.94727 C 407.15709 158.48215 386.20377 157.1875 379.42188 157.1875 C 372.63997 157.1875 358.74219 161.15181 358.74219 177.86719 C 358.74219 194.58256 369.14944 193.18359 371.70312 193.18359 C 374.25673 193.18359 381.89005 194.64707 375.43945 183.47461 C 368.98915 172.30216 374.95772 172.30273 379.13672 172.30273 C 383.31532 172.30273 388.88867 175.11692 388.88867 183.47461 C 388.88837 191.83229 386.67913 194.4934 379.99023 199.68555 C 371.26293 206.4601 355.92696 212.72656 331.31836 212.72656 C 322.46876 212.72656 311.29694 222.26702 301.61914 219.67383 C 304.70143 214.33516 310.91899 207.75758 317.71289 201.02148 L 298.5 212 L 293.1543 212 C 293.15186 212.00337 293.14892 212.0064 293.14648 212.00977 L 284.12695 212.00977 C 284.13084 212.0065 284.13478 212.00327 284.13867 212 L 256.91797 212 C 256.91596 212.00357 256.91412 212.0062 256.91211 212.00977 L 244.74805 212.00977 C 244.74885 212.00643 244.7492 212.00334 244.75 212 L 234.25 212 C 234.2508 212.00334 234.25115 212.00643 234.25195 212.00977 L 222.08789 212.00977 C 222.08588 212.0062 222.08404 212.00357 222.08203 212 L 194.86133 212 C 194.86522 212.00327 194.86916 212.0065 194.87305 212.00977 L 185.85352 212.00977 C 185.85108 212.0064 185.84814 212.00337 185.8457 212 L 183.5 212 L 157.12109 196.92578 C 165.44968 205.0497 173.67529 213.25534 177.38086 219.67383 C 167.70316 222.26702 156.53074 212.72656 147.68164 212.72656 C 123.07284 212.72656 107.73697 206.4601 99.009766 199.68555 C 92.320966 194.4934 90.111528 191.83229 90.111328 183.47461 C 90.111328 175.11692 95.684681 172.30273 99.863281 172.30273 C 104.04228 172.30273 110.01095 172.30216 103.56055 183.47461 C 97.110044 194.64707 104.74338 193.18359 107.29688 193.18359 C 109.85066 193.18359 120.25781 194.58256 120.25781 177.86719 C 120.25781 161.15181 106.35992 157.1875 99.578125 157.1875 z M 191.61719 237 C 191.62056 237.0025 191.62358 237.00532 191.62695 237.00781 L 183.5 237.00781 L 183.5 247.00586 L 198.5 247.00586 L 198.5 316.03906 L 198.5 342 L 198.08789 342 C 201.13933 344.74685 205.16482 346.43164 209.59766 346.43164 C 213.05016 346.43164 216.28652 345.41774 218.98242 343.66992 C 219.66882 343.95564 220.2926 344.20567 221.0957 344.52344 C 222.7457 347.22556 225.84025 348.05297 230.96875 367.19336 C 236.09735 386.33372 232.59375 405.60582 232.59375 427.93164 C 225.69905 415.98961 218.31199 397.23589 196.15039 375.07422 C 173.98879 352.91256 149.55282 350.45314 133.13672 350.45312 C 145.94132 350.45312 165.60406 378.27533 167.91406 386.89648 C 170.22416 395.51764 185.88621 414.35634 201.06641 418.42383 C 216.24661 422.49133 232.59375 439.07557 232.59375 449.91016 C 232.59375 460.74476 230.80469 458.94325 230.80469 465.67383 C 230.80469 472.40441 234.0957 479 234.0957 479 L 239.5 479 L 244.9043 479 C 244.9043 479 248.19336 472.40441 248.19336 465.67383 C 248.19336 458.94325 246.40625 460.74476 246.40625 449.91016 C 246.40625 439.07557 262.75349 422.49133 277.93359 418.42383 C 293.11389 414.35634 308.77594 395.51764 311.08594 386.89648 C 313.39604 378.27533 333.05878 350.45313 345.86328 350.45312 C 329.44728 350.45312 305.01141 352.91256 282.84961 375.07422 C 260.68801 397.23589 253.30115 415.98961 246.40625 427.93164 C 246.40625 405.60582 242.90285 386.33372 248.03125 367.19336 C 253.15995 348.05297 256.2543 347.22556 257.9043 344.52344 C 258.7074 344.20567 259.33108 343.95564 260.01758 343.66992 C 262.71338 345.41774 265.94974 346.43164 269.40234 346.43164 C 273.83782 346.43164 277.87245 344.75167 280.92188 342 L 283.5 342 L 283.5 339.0918 L 283.5 319.32031 L 283.5 247.00586 L 298.5 247.00586 L 298.5 237.00781 L 287.37305 237.00781 C 287.37641 237.00532 287.37944 237.00249 287.38281 237 L 274.17383 237 C 274.1717 237.00276 274.1701 237.00506 274.16797 237.00781 L 250.33984 237.00781 C 250.34073 237.00522 250.34091 237.00259 250.3418 237 L 228.6582 237 C 228.65908 237.00257 228.65928 237.00524 228.66016 237.00781 L 204.83203 237.00781 C 204.8299 237.00506 204.8283 237.00276 204.82617 237 L 191.61719 237 z M 208.5 247.00586 L 223.5 247.00586 L 223.5 264.625 L 223.5 273.375 L 223.5 319.02344 L 223.5 342 L 208.5 342 L 208.5 312.03516 L 208.5 252.71484 L 208.5 247.00586 z M 233.5 247.00586 L 248.5 247.00586 L 248.5 276.1582 L 248.5 288.87891 L 248.5 342 L 252.47852 342 C 249.68231 345.56664 245.47443 351.58913 243.92773 357.36133 L 243.92773 342 L 235.07227 342 L 235.07227 357.36133 C 233.52557 351.58913 229.31769 345.56664 226.52148 342 L 233.5 342 L 233.5 297.64062 L 233.5 281.93945 L 233.5 256.96289 L 233.5 247.00586 z M 258.5 247.00586 L 273.5 247.00586 L 273.5 249.29102 L 273.5 312.49023 L 273.5 342 L 258.5 342 L 258.5 315.85742 L 258.5 268.15625 L 258.5 259.9082 L 258.5 247.00586 z "
       transform="translate(94.785713,181.43362)"
       id="path3814-7-5" />
  </g>
</svg>
