<?xml version="1.0" encoding="UTF-8" standalone="no"?>
<!-- Created with Inkscape (http://www.inkscape.org/) -->

<svg
   xmlns:dc="http://purl.org/dc/elements/1.1/"
   xmlns:cc="http://creativecommons.org/ns#"
   xmlns:rdf="http://www.w3.org/1999/02/22-rdf-syntax-ns#"
   xmlns:svg="http://www.w3.org/2000/svg"
   xmlns="http://www.w3.org/2000/svg"
   xmlns:sodipodi="http://sodipodi.sourceforge.net/DTD/sodipodi-0.dtd"
   xmlns:inkscape="http://www.inkscape.org/namespaces/inkscape"
   width="2323"
   height="479.00018"
   id="svg4002"
   version="1.1"
   inkscape:version="0.91 r13725"
   sodipodi:docname="logo-monotone-blue.svg">
  <defs
     id="defs4004" />
  <sodipodi:namedview
     id="base"
     pagecolor="#ffffff"
     bordercolor="#666666"
     borderopacity="1.0"
     inkscape:pageopacity="0.0"
     inkscape:pageshadow="2"
     inkscape:zoom="0.24748737"
     inkscape:cx="1478.6184"
     inkscape:cy="241.58515"
     inkscape:document-units="px"
     inkscape:current-layer="svg4002"
     showgrid="false"
     fit-margin-top="0"
     fit-margin-left="0"
     fit-margin-right="0"
     fit-margin-bottom="0"
     inkscape:window-width="1440"
     inkscape:window-height="837"
     inkscape:window-x="3192"
     inkscape:window-y="187"
     inkscape:window-maximized="1" />
  <metadata
     id="metadata4007">
    <rdf:RDF>
      <cc:Work
         rdf:about="">
        <dc:format>image/svg+xml</dc:format>
        <dc:type
           rdf:resource="http://purl.org/dc/dcmitype/StillImage" />
        <dc:title></dc:title>
      </cc:Work>
    </rdf:RDF>
  </metadata>
  <path
     style="fill:#2e3c55;fill-opacity:1;stroke:none"
     d="m 239.5,0 c 0,15.6425 -17.75391,52.67787 -17.75391,78.61523 0,25.93737 9.87398,59.25545 12.51368,69.10743 0.76741,2.86383 1.1494,6.05623 1.24218,9.27734 l 7.9961,0 c 0.0928,-3.22111 0.47477,-6.41351 1.24218,-9.27734 2.6397,-9.85198 12.51368,-43.17005 12.51368,-69.10743 C 257.25391,52.67787 239.5,15.6425 239.5,0 Z m -61.0625,57.24414 c -7.8796,7.8797 -11.82422,15.0988 -11.82422,32.82813 0,36.11532 14.17683,56.06335 22.54883,64.43554 0.83304,0.83305 1.75965,1.6608 2.73242,2.49219 l 35.7793,0 c -1.14455,-3.83989 -2.62145,-7.69946 -4.58789,-11.10547 -6.2073,-10.75094 -18.37067,-28.31809 -31.20117,-50.54101 C 179.05437,73.13061 180.8076,66.08954 178.4375,57.24414 Z m 122.125,0 c -2.3702,8.8454 -0.61687,15.88647 -13.44727,38.10938 -12.8306,22.22292 -24.99397,39.79007 -31.20117,50.54101 -1.96647,3.40601 -3.44333,7.26558 -4.58789,11.10547 l 35.7793,0 c 0.97276,-0.83139 1.89938,-1.65914 2.73242,-2.49219 8.372,-8.37218 22.54883,-28.32022 22.54883,-64.43554 2e-4,-17.72933 -3.94472,-24.94843 -11.82422,-32.82813 z M 126.26758,110.375 c -1.25441,-0.13232 -2.26432,1.5749 -2.75977,3.42383 -7.1599,26.72034 13.9421,63.62736 24.6211,74.30664 0.12051,0.12051 0.24981,0.24629 0.37109,0.36719 l 0,3.53711 185,0 0,-6.82618 c 11.12606,-13.37735 28.60287,-46.71408 21.99219,-71.38476 -0.49545,-1.84893 -1.50536,-3.55615 -2.75977,-3.42383 -1.25441,0.13232 -2.75371,2.10312 -4.22851,7.60742 -2.9498,11.0086 -21.20405,21.63149 -28.27735,33.88281 -0.99099,1.71641 -1.78252,3.42156 -2.46484,5.13477 l 15.73828,0 0,25 -22.97656,0 c -10e-4,0.004 -0.003,0.008 -0.004,0.0117 l -50.93359,0 c 0.003,-0.004 0.005,-0.008 0.008,-0.0117 l -40.1875,0 c 0.003,0.004 0.005,0.008 0.008,0.0117 l -50.93359,0 c -0.001,-0.004 -0.003,-0.008 -0.004,-0.0117 l -19.97656,0 0,-25 12.73828,0 c -0.68232,-1.71321 -1.47385,-3.41836 -2.46484,-5.13477 -7.0733,-12.25132 -25.32755,-22.87421 -28.27735,-33.88281 -1.4748,-5.5043 -2.9741,-7.4751 -4.22851,-7.60742 z m -26.689455,46.8125 c -6.782,0 -27.735312,1.29465 -25.757813,25.75977 2.321501,28.72375 49.056028,29.93261 45.828128,30.87695 -18.9043,5.53077 -35.601187,8.16601 -47.208987,8.16601 -11.608,0 -8.370019,-3.25 -23.199219,-3.25 C 17.666734,218.74023 0,241.04297 0,241.04297 c 0,0 2.8201248,6.01367 28.357422,6.01367 24.6605,0 51.675362,-12.76095 62.039062,-15.92578 -0.3871,0.3423 -0.726593,0.72101 -0.933593,1.09766 -0.1351,0.29953 -0.240688,0.56338 -0.367188,0.85156 -6.0262,5.65085 -18.484375,18.50194 -18.484375,43.22851 0,28.7876 26.28062,57.60938 49.728512,57.60938 3.4118,-0.0352 6.64015,0.2019 9.46485,-0.24219 0.053,-0.008 0.11206,0.009 0.16406,0 0.1448,-0.0178 0.29891,-0.0621 0.44531,-0.082 5.2702,-0.71596 11.54992,-2.79155 17.79492,-7.92187 6.3353,-6.65225 16.73253,-26.7553 16.04883,-54.76758 -0.3357,-13.75146 -3.53001,-19.26591 -9.79101,-25.22852 -1.6708,6.90566 -0.18004,12.34058 -9.71094,29.82031 -9.5312,17.47972 -16.77253,18.86134 -19.58203,28.07422 -4.0568,13.30363 -0.82555,16.05437 -4.99805,25.67578 -8.0477,-0.17862 -27.709296,-13.29025 -32.216796,-21.61328 -5.3274,-8.61826 -9.953125,-9.50115 -9.953125,-34.57422 0,-7.80901 2.616178,-16.0579 7.392579,-23.72656 0.018,1.27376 -0.0299,2.55772 -0.283204,4.10352 1.1211,-2.34017 -3.74706,33.37388 17.835936,38.71875 18.3832,4.55249 21.94622,-11.24979 22.79102,-16.41407 0.8444,-5.16428 -0.43391,-16.24258 -13.16211,-18.32421 -12.728204,-2.08164 -12.967158,6.01829 -13.285158,7.96289 -0.318,1.94461 -2.363736,7.58483 6.947268,4.06445 9.3105,-3.52038 8.56337,1.04246 8.04297,4.22461 -0.5204,3.18186 -3.34489,7.05449 -9.70899,6.01367 -6.364096,-1.04093 -6.996586,-5.31088 -10.117186,-11.05078 -1.4979,-2.75547 -4.284828,-19.05572 -0.486328,-30.06445 11.682004,-11.75421 29.091804,-20.27344 49.970704,-20.27344 13.36131,0.34836 27.4063,5.77608 39.55664,13.23047 l 0,-9.51563 115,0 0,7.74024 c 11.4304,-6.52656 24.28153,-11.13504 36.55664,-11.45508 20.8788,0 38.2888,8.51923 49.9707,20.27344 3.7984,11.00873 1.01178,27.30898 -0.48632,30.06445 -3.1205,5.7399 -3.75309,10.00985 -10.11719,11.05078 -6.3641,1.04082 -9.18849,-2.83181 -9.70899,-6.01367 -0.5205,-3.18215 -1.26577,-7.74499 8.04493,-4.22461 9.3106,3.52038 7.26331,-2.11984 6.94531,-4.06445 -0.318,-1.9446 -0.55706,-10.04453 -13.28516,-7.96289 -12.7282,2.08163 -14.00661,13.15993 -13.16211,18.32421 0.8445,5.16428 4.40782,20.96656 22.79102,16.41407 21.583,-5.34487 16.71474,-41.05892 17.83594,-38.71875 -0.2532,-1.5458 -0.30141,-2.82976 -0.28321,-4.10352 4.7764,7.66866 7.39258,15.91755 7.39258,23.72656 0,25.07307 -4.62552,25.95596 -9.95312,34.57422 -4.5073,8.32303 -24.1691,21.43466 -32.2168,21.61328 -4.1725,-9.62141 -0.94105,-12.37215 -4.99805,-25.67578 -2.8092,-9.21288 -10.05093,-10.5945 -19.58203,-28.07422 -9.5313,-17.47973 -8.03994,-22.91465 -9.71094,-29.82031 -6.2608,5.96261 -9.45561,11.47706 -9.79101,25.22852 -0.6839,28.01228 9.71363,48.11533 16.04883,54.76758 6.2451,5.13032 12.52472,7.20591 17.79492,7.92187 0.1464,0.0199 0.30041,0.0641 0.44531,0.082 0.052,0.009 0.11076,-0.008 0.16406,0 2.8246,0.44409 6.05305,0.20696 9.46485,0.24219 23.4479,0 49.72851,-28.82178 49.72851,-57.60938 0,-24.72657 -12.45807,-37.57766 -18.48437,-43.22851 -0.1262,-0.28818 -0.23209,-0.55203 -0.36719,-0.85156 -0.207,-0.37665 -0.54639,-0.75536 -0.93359,-1.09766 10.3639,3.16483 37.37856,15.92578 62.03906,15.92578 25.5373,0 28.35742,-6.01367 28.35742,-6.01367 0,0 -17.66673,-22.30274 -49.24023,-22.30274 -14.8293,0 -11.59142,3.25 -23.19922,3.25 -11.6081,0 -28.30459,-2.63524 -47.20899,-8.16601 -3.2278,-0.94434 43.50673,-2.1532 45.82813,-30.87695 1.9774,-24.46512 -18.97592,-25.75977 -25.75781,-25.75977 -6.78191,0 -20.67969,3.96431 -20.67969,20.67969 0,16.71537 10.40725,15.3164 12.96093,15.3164 2.55361,0 10.18693,1.46348 3.73633,-9.70898 -6.4503,-11.17245 -0.48173,-11.17188 3.69727,-11.17188 4.1786,0 9.75195,2.81419 9.75195,11.17188 -3e-4,8.35768 -2.20954,11.01879 -8.89844,16.21094 -8.7273,6.77455 -24.06327,13.04101 -48.67187,13.04101 -8.8496,0 -20.02142,9.54046 -29.69922,6.94727 3.08229,-5.33867 9.29985,-11.91625 16.09375,-18.65235 L 298.5,212 l -5.3457,0 c -0.002,0.003 -0.005,0.006 -0.008,0.01 l -9.01953,0 c 0.004,-0.003 0.008,-0.007 0.0117,-0.01 l -27.2207,0 c -0.002,0.004 -0.004,0.006 -0.006,0.01 l -12.16406,0 c 8e-4,-0.003 10e-4,-0.006 0.002,-0.01 l -10.5,0 c 8e-4,0.003 0.001,0.006 0.002,0.01 l -12.16406,0 c -0.002,-0.004 -0.004,-0.006 -0.006,-0.01 l -27.2207,0 c 0.004,0.003 0.008,0.006 0.0117,0.01 l -9.01953,0 c -0.002,-0.003 -0.005,-0.006 -0.008,-0.01 l -2.3457,0 -26.37891,-15.07422 c 8.32859,8.12392 16.5542,16.32956 20.25977,22.74805 -9.6777,2.59319 -20.85012,-6.94727 -29.69922,-6.94727 -24.6088,0 -39.94467,-6.26646 -48.671874,-13.04101 -6.6888,-5.19215 -8.898238,-7.85326 -8.898438,-16.21094 0,-8.35769 5.573353,-11.17188 9.751953,-11.17188 4.178999,0 10.147669,-5.7e-4 3.697269,11.17188 -6.450506,11.17246 1.18283,9.70898 3.73633,9.70898 2.55378,0 12.96093,1.39897 12.96093,-15.3164 0,-16.71538 -13.89789,-20.67969 -20.679685,-20.67969 z M 191.61719,237 c 0.003,0.002 0.006,0.005 0.01,0.008 l -8.12695,0 0,9.99805 15,0 0,69.0332 0,25.96094 -0.41211,0 c 3.05144,2.74685 7.07693,4.43164 11.50977,4.43164 3.4525,0 6.68886,-1.0139 9.38476,-2.76172 0.6864,0.28572 1.31018,0.53575 2.11328,0.85352 1.65,2.70212 4.74455,3.52953 9.87305,22.66992 5.1286,19.14036 1.625,38.41246 1.625,60.73828 -6.8947,-11.94203 -14.28176,-30.69575 -36.44336,-52.85742 -22.1616,-22.16166 -46.59757,-24.62108 -63.01367,-24.6211 12.8046,0 32.46734,27.82221 34.77734,36.44336 2.3101,8.62116 17.97215,27.45986 33.15235,31.52735 15.1802,4.0675 31.52734,20.65174 31.52734,31.48633 0,10.8346 -1.78906,9.03309 -1.78906,15.76367 0,6.73058 3.29101,13.32617 3.29101,13.32617 l 5.4043,0 5.4043,0 c 0,0 3.28906,-6.59559 3.28906,-13.32617 0,-6.73058 -1.78711,-4.92907 -1.78711,-15.76367 0,-10.83459 16.34724,-27.41883 31.52734,-31.48633 15.1803,-4.06749 30.84235,-22.90619 33.15235,-31.52735 2.3101,-8.62115 21.97284,-36.44335 34.77734,-36.44336 -16.416,0 -40.85187,2.45944 -63.01367,24.6211 -22.1616,22.16167 -29.54846,40.91539 -36.44336,52.85742 0,-22.32582 -3.5034,-41.59792 1.625,-60.73828 5.1287,-19.14039 8.22305,-19.9678 9.87305,-22.66992 0.8031,-0.31777 1.42678,-0.5678 2.11328,-0.85352 2.6958,1.74782 5.93216,2.76172 9.38476,2.76172 4.43548,0 8.47011,-1.67997 11.51954,-4.43164 l 2.57812,0 0,-2.9082 0,-19.77149 0,-72.31445 15,0 0,-9.99805 -11.12695,0 c 0.003,-0.002 0.006,-0.005 0.01,-0.008 l -13.20898,0 c -0.002,0.003 -0.004,0.005 -0.006,0.008 l -23.82813,0 c 8.9e-4,-0.003 0.001,-0.005 0.002,-0.008 l -21.6836,0 c 8.8e-4,0.003 0.001,0.005 0.002,0.008 l -23.82813,0 c -0.002,-0.003 -0.004,-0.005 -0.006,-0.008 l -13.20898,0 z m 16.88281,10.00586 15,0 0,17.61914 0,8.75 0,45.64844 0,22.97656 -15,0 0,-29.96484 0,-59.32032 0,-5.70898 z m 25,0 15,0 0,29.15234 0,12.72071 0,53.12109 3.97852,0 c -2.79621,3.56664 -7.00409,9.58913 -8.55079,15.36133 l 0,-15.36133 -8.85546,0 0,15.36133 c -1.5467,-5.7722 -5.75458,-11.79469 -8.55079,-15.36133 l 6.97852,0 0,-44.35938 0,-15.70117 0,-24.97656 0,-9.95703 z m 25,0 15,0 0,2.28516 0,63.19921 0,29.50977 -15,0 0,-26.14258 0,-47.70117 0,-8.24805 0,-12.90234 z"
     id="path3814-7-5"
     inkscape:connector-curvature="0" />
  <g
     style="font-style:normal;font-variant:normal;font-weight:bold;font-stretch:normal;font-size:180px;line-height:125%;font-family:Titillium;-inkscape-font-specification:'Titillium Bold';letter-spacing:0px;word-spacing:0px;fill:#2e3c55;fill-opacity:1;stroke:none;stroke-width:1px;stroke-linecap:butt;stroke-linejoin:miter;stroke-opacity:1"
     id="text4141"
     transform="translate(0,1.9e-4)">
    <path
       d="m 600.76002,281.26001 c -20.16,0 -25.2,-12.78 -25.2,-41.04 0,-28.26 5.04,-42.48 25.2,-42.48 20.16,0 25.2,14.22 25.2,42.48 0,28.26 -5.04,41.04 -25.2,41.04 z m 0,21.6 c 38.52,0 50.76,-21.24 50.76,-62.64 0,-41.4 -12.24,-64.08 -50.76,-64.08 -38.52,0 -50.76,22.68 -50.76,64.08 0,41.4 12.24,62.64 50.76,62.64 z"
       id="path4163"
       inkscape:connector-curvature="0" />
    <path
       d="m 672.82189,300.70001 24.84,0 0,-94.68 2.7,0 23.94,89.28 24.84,0 23.94,-89.28 2.7,0 0,94.68 24.84,0 0,-122.4 -42.3,0 -21.6,89.28 -21.6,-89.28 -42.3,0 0,122.4 z"
       id="path4165"
       inkscape:connector-curvature="0" />
    <path
       d="m 896.81783,300.70001 0,-21.96 -44.82,0 0,-100.44 -24.84,0 0,122.4 69.66,0 z"
       id="path4167"
       inkscape:connector-curvature="0" />
    <path
       d="m 1029.0025,278.38001 c -7.2,1.08 -22.5,2.52 -30.77998,2.52 -21.24,0 -25.56,-8.46 -25.56,-41.4 0,-34.74 5.94,-41.4 24.84,-41.4 8.09998,0 23.21998,1.44 31.49998,2.7 l 0.72,-19.8 c -7.56,-1.8 -23.04,-4.86 -35.81998,-4.86 -36.36,0 -46.8,16.92 -46.8,63.36 0,42.84 9,63.36 46.8,63.36 11.15998,0 27.35998,-2.34 35.63998,-4.14 l -0.54,-20.34 z"
       id="path4169"
       inkscape:connector-curvature="0" />
    <path
       d="m 1094.0022,281.26001 c -20.16,0 -25.2,-12.78 -25.2,-41.04 0,-28.26 5.04,-42.48 25.2,-42.48 20.16,0 25.2,14.22 25.2,42.48 0,28.26 -5.04,41.04 -25.2,41.04 z m 0,21.6 c 38.52,0 50.76,-21.24 50.76,-62.64 0,-41.4 -12.24,-64.08 -50.76,-64.08 -38.52,0 -50.76,22.68 -50.76,64.08 0,41.4 12.24,62.64 50.76,62.64 z"
       id="path4171"
       inkscape:connector-curvature="0" />
    <path
       d="m 1166.0641,300.70001 24.84,0 0,-100.8 1.8,0 30.6,100.8 40.86,0 0,-122.4 -24.84,0 0,100.8 -1.8,0 -29.52,-100.8 -41.94,0 0,122.4 z"
       id="path4173"
       inkscape:connector-curvature="0" />
    <path
       d="m 1279.8888,200.26001 32.76,0 0,100.44 24.84,0 0,-100.44 32.4,0 0,-21.96 -90,0 0,21.96 z"
       id="path4175"
       inkscape:connector-curvature="0" />
    <path
       d="m 1434.2191,259.66001 14.22,41.04 27.18,0 -17.46,-46.8 c 11.16,-7.02 18,-18.36 18,-35.28 0,-27.9 -15.3,-40.32 -43.2,-40.32 l -47.52,0 0,122.4 24.84,0 0,-41.04 23.94,0 z m 16.56,-40.68 c 0,10.8 -5.04,19.44 -17.46,19.44 l -23.04,0 0,-38.88 22.68,0 c 11.88,0 17.82,7.74 17.82,19.44 z"
       id="path4177"
       inkscape:connector-curvature="0" />
    <path
       d="m 1485.2181,300.70001 24.84,0 4.86,-22.14 42.84,0 4.86,22.14 24.84,0 -27.54,-122.4 -47.16,0 -27.54,122.4 z m 46.8,-101.88 8.64,0 12.42,58.14 -33.48,0 12.42,-58.14 z"
       id="path4179"
       inkscape:connector-curvature="0" />
    <path
       d="m 1679.0416,278.38001 c -7.2,1.08 -22.5,2.52 -30.78,2.52 -21.24,0 -25.56,-8.46 -25.56,-41.4 0,-34.74 5.94,-41.4 24.84,-41.4 8.1,0 23.22,1.44 31.5,2.7 l 0.72,-19.8 c -7.56,-1.8 -23.04,-4.86 -35.82,-4.86 -36.36,0 -46.8,16.92 -46.8,63.36 0,42.84 9,63.36 46.8,63.36 11.16,0 27.36,-2.34 35.64,-4.14 l -0.54,-20.34 z"
       id="path4181"
       inkscape:connector-curvature="0" />
    <path
       d="m 1688.756,200.26001 32.76,0 0,100.44 24.84,0 0,-100.44 32.4,0 0,-21.96 -90,0 0,21.96 z"
       id="path4183"
       inkscape:connector-curvature="0" />
    <path
       d="m 1794.3063,300.70001 24.84,0 0,-122.4 -24.84,0 0,122.4 z"
       id="path4185"
       inkscape:connector-curvature="0" />
    <path
       d="m 1845.6344,300.70001 24.84,0 0,-100.8 1.8,0 30.6,100.8 40.86,0 0,-122.4 -24.84,0 0,100.8 -1.8,0 -29.52,-100.8 -41.94,0 0,122.4 z"
       id="path4187"
       inkscape:connector-curvature="0" />
    <path
       d="m 2021.3791,256.78001 11.16,0 0,23.76 c 0,0 -7.56,0.72 -14.94,0.72 -22.32,0 -26.82,-9.18 -26.82,-41.76 0,-34.38 6.3,-41.4 27.54,-41.4 16.38,0 37.98,2.34 37.98,2.34 l 0.72,-19.26 c 0,0 -23.76,-5.04 -42.66,-5.04 -36.18,0 -49.14,18.72 -49.14,63.36 0,41.04 10.08,63.36 50.04,63.36 16.02,0 41.76,-4.14 41.76,-4.14 l 0,-63.54 -35.64,0 0,21.6 z"
       id="path4189"
       inkscape:connector-curvature="0" />
    <path
       d="m 2197.2447,278.38001 c -7.2,1.08 -22.5,2.52 -30.78,2.52 -21.24,0 -25.56,-8.46 -25.56,-41.4 0,-34.74 5.94,-41.4 24.84,-41.4 8.1,0 23.22,1.44 31.5,2.7 l 0.72,-19.8 c -7.56,-1.8 -23.04,-4.86 -35.82,-4.86 -36.36,0 -46.8,16.92 -46.8,63.36 0,42.84 9,63.36 46.8,63.36 11.16,0 27.36,-2.34 35.64,-4.14 l -0.54,-20.34 z"
       id="path4191"
       inkscape:connector-curvature="0" />
    <path
       d="m 2262.2444,281.26001 c -20.16,0 -25.2,-12.78 -25.2,-41.04 0,-28.26 5.04,-42.48 25.2,-42.48 20.16,0 25.2,14.22 25.2,42.48 0,28.26 -5.04,41.04 -25.2,41.04 z m 0,21.6 c 38.52,0 50.76,-21.24 50.76,-62.64 0,-41.4 -12.24,-64.08 -50.76,-64.08 -38.52,0 -50.76,22.68 -50.76,64.08 0,41.4 12.24,62.64 50.76,62.64 z"
       id="path4193"
       inkscape:connector-curvature="0" />
  </g>
  <path
     style="fill:none;fill-rule:evenodd;stroke:#2e3c55;stroke-width:25;stroke-linecap:butt;stroke-linejoin:miter;stroke-miterlimit:4;stroke-dasharray:none;stroke-opacity:1"
     d="m 540,119.00019 1783,0"
     id="path4145"
     inkscape:connector-curvature="0"
     sodipodi:nodetypes="cc" />
  <path
     style="fill:none;fill-rule:evenodd;stroke:#2e3c55;stroke-width:25;stroke-linecap:butt;stroke-linejoin:miter;stroke-miterlimit:4;stroke-dasharray:none;stroke-opacity:1"
     d="m 540,366.50019 1783,0"
     id="path4145-4"
     inkscape:connector-curvature="0"
     sodipodi:nodetypes="cc" />
</svg>
